<!-- icon666.com - MILLIONS vector ICONS FREE --><svg viewBox="0 0 512 512" xmlns="http://www.w3.org/2000/svg"><g id="European_Union"><path d="m329.58 18.381h-147.142c-90.46 0-164.056 73.587-164.056 164.038v147.159c0 90.451 73.596 164.039 164.056 164.039h147.142c90.451 0 164.039-73.588 164.039-164.039v-147.159c0-90.451-73.588-164.038-164.039-164.038z" fill="#0153b5"></path><path d="m18.424 329.503v-147.009c0-90.568 73.505-164.072 164.072-164.072h56.945c-44.611 8.96-165.086 43.596-183.337 154.443l-.842 180.796s4.39 73.679 37.005 112.877c-44.438-29.397-73.843-79.751-73.843-137.035z" fill="#fff" opacity=".22"></path><path d="m493.578 182.494v147.009c0 90.567-73.506 164.072-164.072 164.072h-147.01c-19.266 0-37.681-3.383-54.916-9.464l148.189-12.672c153.09-21.122 159.006-124.535 159.006-124.535l-.677-179.617s-3.209-105.607-130.45-148.865h25.857c90.567 0 164.073 73.504 164.073 164.072z" fill="#160204" opacity=".13"></path><g fill="#fdd43e"><g><path d="m243.01 167.458 12.941-8.994 12.325 8.947c1.359.988 3.199.992 4.563.012 1.363-.98 1.946-2.725 1.445-4.328l-4.582-14.66 12.511-9.57c1.327-1.014 1.859-2.762 1.324-4.344-.536-1.582-2.021-2.646-3.691-2.646h-15.182l-5.111-14.051c-.56-1.543-2.025-2.501-3.661-2.566-2.982-.119-3.692 2.65-3.692 2.65l-4.718 13.967-15.329-.002c-1.666.002-3.15 1.061-3.688 2.639-.539 1.578-.016 3.324 1.305 4.342l12.08 9.338-4.774 14.879c-.512 1.59.049 3.328 1.393 4.32 0-.001 2.282 1.637 4.541.067z"></path><g><path d="m310.929 183.626 15.511 2.791 2.39 15.043c.262 1.658 1.561 2.961 3.217 3.232 1.657.271 3.303-.549 4.082-2.037l7.127-13.607 15.612 2.082c1.655.219 3.268-.639 4.009-2.139.74-1.496.442-3.299-.738-4.479l-10.735-10.736 6.321-13.551c.693-1.484.382-3.244-.775-4.4-2.177-2.176-4.484-.738-4.484-.738l-13.212 6.539-10.839-10.84c-1.179-1.178-2.976-1.477-4.473-.742-1.496.734-2.359 2.34-2.146 3.992l1.939 15.145-13.896 7.145c-1.485.762-2.319 2.389-2.072 4.041-.002-.001.276 2.739 3.162 3.259z"></path><path d="m204.235 180.366c.357-1.632-.587-3.279-2.072-4.041l-13.896-7.145 1.939-15.145c.213-1.652-.65-3.258-2.146-3.992-1.497-.734-3.294-.436-4.473.742l-10.839 10.84-13.212-6.539c-2.869-1.166-4.484.738-4.484.738-1.157 1.156-1.469 2.916-.775 4.4l6.321 13.551-10.735 10.736c-1.181 1.18-1.479 2.982-.738 4.479.741 1.5 2.354 2.357 4.009 2.139l15.612-2.082 7.127 13.607c.779 1.488 2.425 2.309 4.082 2.037 1.656-.271 2.955-1.574 3.217-3.232l2.39-15.043 15.511-2.791c-.002.001 2.398.231 3.162-3.259z"></path></g></g><g><path d="m273.531 344.612c1.181 1.182 1.904 2.73 1.393 4.32l-4.774 14.879 12.08 9.338c1.32 1.018 1.844 2.764 1.305 4.342-.537 1.578-2.021 2.637-3.688 2.639l-15.329-.002-4.718 13.967c-.53 1.568-1.994 2.595-3.646 2.65-2.43.082-3.707-2.566-3.707-2.566l-5.111-14.051h-15.182c-1.671 0-3.155-1.064-3.691-2.646-.535-1.582-.003-3.33 1.324-4.344l12.511-9.57-4.582-14.66c-.501-1.604.082-3.348 1.445-4.328 1.364-.98 3.204-.977 4.563.012l12.325 8.947 12.941-8.994c0-.001 2.843-1.632 4.541.067z"></path><g><path d="m159.536 356.915 13.212-6.539 10.839 10.84c1.179 1.178 2.976 1.477 4.473.742 1.496-.734 2.359-2.34 2.146-3.992l-1.939-15.145 13.896-7.145c1.485-.762 2.319-2.389 2.072-4.041 0 0-.136-2.715-3.164-3.26l-15.511-2.791-2.39-15.043c-.262-1.658-1.561-2.961-3.217-3.232-1.657-.271-3.303.549-4.082 2.037l-7.127 13.607-15.612-2.082c-1.655-.219-3.268.639-4.009 2.139-.74 1.496-.442 3.299.738 4.479l10.735 10.736-6.321 13.551c-.693 1.484-.382 3.244.775 4.4.002.001 2.196 1.872 4.486.739z"></path><path d="m310.929 328.376 15.511-2.791 2.39-15.043c.262-1.658 1.561-2.961 3.217-3.232 1.657-.271 3.303.549 4.082 2.037l7.127 13.607 15.612-2.082c1.655-.219 3.268.639 4.009 2.139.74 1.496.442 3.299-.738 4.479l-10.735 10.736 6.321 13.551s1.441 2.309-.808 4.434c-1.203 1.137-2.968 1.439-4.452.705l-13.212-6.539-10.839 10.84c-1.179 1.178-2.976 1.477-4.473.742-1.496-.734-2.359-2.34-2.146-3.992l1.939-15.145-13.896-7.145c-1.485-.762-2.319-2.389-2.072-4.041-.001 0 .292-2.743 3.163-3.26z"></path></g></g><g><path d="m379.205 229.642c-1.54-.601-3.295-.146-4.366 1.113l-9.551 11.229-14.241-5.67c-1.549-.617-3.319-.18-4.402 1.086-1.085 1.266-1.244 3.08-.395 4.516l7.769 13.145-9.939 12.055c-1.063 1.289-1.186 3.111-.307 4.533 0 0 1.392 2.392 4.194 1.74l15.352-3.566 8.139 12.873c.899 1.418 2.607 2.102 4.236 1.699 1.629-.406 2.816-1.813 2.944-3.488l1.167-15.314 15.163-4.262c1.608-.451 2.749-1.879 2.838-3.547.087-1.666-.898-3.205-2.45-3.824l-14.104-5.617.449-14.945c0-.002.272-2.678-2.496-3.756z"></path><path d="m168.228 271.647c.784-1.477.757-3.244-.307-4.533l-9.939-12.055 7.769-13.145c.85-1.436.69-3.25-.395-4.516-1.083-1.266-2.854-1.703-4.402-1.086l-14.241 5.67-9.551-11.229c-1.893-2.226-4.409-1.096-4.409-1.096-1.521.605-2.502 2.1-2.453 3.736l.449 14.945-14.104 5.617c-1.552.619-2.537 2.158-2.45 3.824.089 1.668 1.229 3.096 2.838 3.547l15.163 4.262 1.167 15.314c.128 1.676 1.315 3.082 2.944 3.488 1.629.402 3.337-.281 4.236-1.699l8.139-12.873 15.352 3.566c-.001.004 2.921.66 4.194-1.737z"></path></g></g></g></svg>